<svg id="Layer_1" data-name="Layer 1" xmlns="http://www.w3.org/2000/svg" viewBox="0 0 2252.39 316.04"><defs><style>.cls-1,.cls-2,.cls-3{fill:#fff;}.cls-1{opacity:0.5;}.cls-2{opacity:0.71;}.cls-4{opacity:0.6;}</style></defs><title>KenseUniv</title><path class="cls-1" d="M-567.25-548.68A66.29,66.29,0,0,1-558-548h-70.47a19,19,0,0,1-19-19v-.65a19,19,0,0,0,19,19Z" transform="translate(647.43 755.11)"/><path class="cls-1" d="M-402.43-736.11v23.79a164.26,164.26,0,0,1-43.76,111.75c-1.09,1.18-2.19,2.34-3.32,3.48a164.25,164.25,0,0,0-103.71-49c-.53,0-1.06-.07-1.6-.07H-558a66.92,66.92,0,0,0,57.53-66.17v-23.79a19,19,0,0,1,19-19h60A19,19,0,0,1-402.43-736.11Z" transform="translate(647.43 755.11)"/><path class="cls-2" d="M-449.51-597.09a164.2,164.2,0,0,1-103.71,49c-.53.05-1.06.07-1.6.07H-558a66.29,66.29,0,0,0-9.29-.65h-61.18a19,19,0,0,1-19-19V-626.5a19,19,0,0,1,19-19h61.18a66.29,66.29,0,0,0,9.29-.65h3.14c.54,0,1.07,0,1.6.07A164.25,164.25,0,0,1-449.51-597.09Z" transform="translate(647.43 755.11)"/><path class="cls-1" d="M-558-646.15a66.29,66.29,0,0,1-9.29.65h-61.18a19,19,0,0,0-19,19v-.65a19,19,0,0,1,19-19Z" transform="translate(647.43 755.11)"/><path class="cls-1" d="M-402.43-481.86v23.79a19,19,0,0,1-19,19h-60a19,19,0,0,1-19-19v-23.79A66.92,66.92,0,0,0-558-548h3.14c.54,0,1.07,0,1.6-.07a164.2,164.2,0,0,0,103.71-49c1.13,1.14,2.23,2.3,3.32,3.48A164.26,164.26,0,0,1-402.43-481.86Z" transform="translate(647.43 755.11)"/><polygon class="cls-3" points="504.92 72.61 464.49 72.61 407.08 142.95 404.98 142.95 404.98 72.61 371.25 72.61 371.25 232.13 404.98 232.13 404.98 186.8 421.57 166.55 465.27 232.13 505.62 232.13 445.72 144.04 504.92 72.61"/><path class="cls-3" d="M-41.06-629.07A49.81,49.81,0,0,0-59-640.4,63.29,63.29,0,0,0-81-644.18q-17.61,0-30.66,7.79a53,53,0,0,0-20.21,21.73q-7.17,13.95-7.17,32.41,0,18.93,7.17,32.75a50.88,50.88,0,0,0,20.45,21.35q13.27,7.51,31.74,7.51,14.81,0,26.13-4.55A47.9,47.9,0,0,0-35.06-538a41.79,41.79,0,0,0,9.55-19.28l-30.7-2a20.32,20.32,0,0,1-5,7.63A20.82,20.82,0,0,1-69.06-547a31.32,31.32,0,0,1-10.12,1.56,28.47,28.47,0,0,1-14.42-3.5,23.72,23.72,0,0,1-9.38-10,33.26,33.26,0,0,1-3.31-15.35v-.08h81.48v-9.11q0-15.27-4.29-26.68A51.5,51.5,0,0,0-41.06-629.07Zm-65.19,34.2a26.17,26.17,0,0,1,3.31-11.8,24.82,24.82,0,0,1,9.07-9.27,25.56,25.56,0,0,1,13.36-3.47,25.06,25.06,0,0,1,12.74,3.16,22.55,22.55,0,0,1,8.6,8.68A25.41,25.41,0,0,1-56-594.87Z" transform="translate(647.43 755.11)"/><path class="cls-3" d="M87.59-638.73q-9.27-5.44-21.73-5.45-13.32,0-22.67,6.12a33.56,33.56,0,0,0-13.32,16.55h-1.4v-21.11H-3.16V-523H30v-69.18A29.09,29.09,0,0,1,33-605.35a19.77,19.77,0,0,1,7.94-8.37,23.58,23.58,0,0,1,11.8-2.88q10,0,15.66,6.19T74-593.24V-523h33.18v-76.19q0-13.94-5.14-24A37.18,37.18,0,0,0,87.59-638.73Z" transform="translate(647.43 755.11)"/><path class="cls-3" d="M200.92-592.46l-21.65-4.36q-8.34-1.78-11.76-4.75a9.2,9.2,0,0,1-3.43-7.24q0-5.38,5.3-8.61a24.46,24.46,0,0,1,13-3.23,23.76,23.76,0,0,1,9.94,1.9,18.42,18.42,0,0,1,6.73,5.07,15.88,15.88,0,0,1,3.35,7l30.38-1.87q-2.17-16.51-15.23-26.1t-35.71-9.58q-15.34,0-26.76,4.52T137.4-626.81a32.11,32.11,0,0,0-6.27,19.86q0,13.41,8.53,22.05t26.05,12.15l20.72,4.13q7.8,1.56,11.53,4.48a9.25,9.25,0,0,1,3.82,7.44q-.08,5.37-5.41,8.76t-14.06,3.39q-8.88,0-14.57-3.78a16.64,16.64,0,0,1-7.17-11l-32.63,1.71a38.37,38.37,0,0,0,16.47,27.07q14.06,9.93,37.82,9.93,15.57,0,27.53-4.94t18.86-13.83A32.73,32.73,0,0,0,235.51-560q0-12.93-8.57-20.88T200.92-592.46Z" transform="translate(647.43 755.11)"/><path class="cls-3" d="M349.66-629.07a49.89,49.89,0,0,0-17.91-11.33,63.31,63.31,0,0,0-22.09-3.78q-17.6,0-30.65,7.79a52.9,52.9,0,0,0-20.21,21.73q-7.17,13.95-7.17,32.41,0,18.93,7.17,32.75a50.88,50.88,0,0,0,20.45,21.35q13.28,7.51,31.74,7.51,14.79,0,26.13-4.55A47.9,47.9,0,0,0,355.66-538a41.87,41.87,0,0,0,9.54-19.28l-30.69-2a20.32,20.32,0,0,1-5,7.63,20.89,20.89,0,0,1-7.87,4.67,31.38,31.38,0,0,1-10.13,1.56,28.43,28.43,0,0,1-14.41-3.5,23.66,23.66,0,0,1-9.38-10,33.26,33.26,0,0,1-3.31-15.35v-.08H365.9v-9.11q0-15.27-4.28-26.68A51.63,51.63,0,0,0,349.66-629.07Zm-65.19,34.2a26.16,26.16,0,0,1,3.3-11.8,24.92,24.92,0,0,1,9.08-9.27,25.56,25.56,0,0,1,13.36-3.47,25,25,0,0,1,12.73,3.16,22.58,22.58,0,0,1,8.61,8.68,25.41,25.41,0,0,1,3.12,12.7Z" transform="translate(647.43 755.11)"/><path class="cls-3" d="M492.72-623.19a37.25,37.25,0,0,0-14.41-15.54q-9.29-5.44-21.74-5.45-13.32,0-22.66,6.12a33.45,33.45,0,0,0-13.32,16.55h-1.41v-21.11H387.56V-523h33.18v-69.18a29.09,29.09,0,0,1,2.92-13.2,19.86,19.86,0,0,1,7.95-8.37,23.58,23.58,0,0,1,11.8-2.88q10,0,15.66,6.19t5.6,17.17V-523h33.19v-76.19Q497.86-613.09,492.72-623.19Z" transform="translate(647.43 755.11)"/><g class="cls-4"><path class="cls-3" d="M623.11-581.79a32.39,32.39,0,0,1-4,16.21,28.82,28.82,0,0,1-11.3,11.14,34.58,34.58,0,0,1-17.09,4.05,34.66,34.66,0,0,1-17.06-4.05,28.73,28.73,0,0,1-11.34-11.14,32.39,32.39,0,0,1-4-16.21V-682.5H524.57v103.6q0,17.45,8.26,30.53A55.36,55.36,0,0,0,556-528q14.88,7.29,34.75,7.28T625.37-528a55.66,55.66,0,0,0,23.17-20.37q8.3-13.08,8.3-30.53V-682.5H623.11Z" transform="translate(647.43 755.11)"/><path class="cls-3" d="M774.69-638.73q-9.27-5.44-21.73-5.45-13.32,0-22.67,6.12A33.56,33.56,0,0,0,717-621.51h-1.4v-21.11H684V-523h33.18v-69.18a29,29,0,0,1,2.92-13.2,19.77,19.77,0,0,1,7.94-8.37,23.62,23.62,0,0,1,11.81-2.88q10,0,15.65,6.19t5.61,17.17V-523h33.18v-76.19q0-13.94-5.14-24A37.12,37.12,0,0,0,774.69-638.73Z" transform="translate(647.43 755.11)"/><rect class="cls-3" x="1467.77" y="112.49" width="33.18" height="119.65"/><path class="cls-3" d="M837-691.62a17.79,17.79,0,0,0-12.66,5,15.64,15.64,0,0,0-5.26,11.8A15.73,15.73,0,0,0,824.35-663,17.79,17.79,0,0,0,837-658a17.79,17.79,0,0,0,12.65-5,15.73,15.73,0,0,0,5.26-11.88,15.64,15.64,0,0,0-5.26-11.8A17.79,17.79,0,0,0,837-691.62Z" transform="translate(647.43 755.11)"/><polygon class="cls-3" points="1579.08 198.09 1577.83 198.09 1552.98 112.49 1517.93 112.49 1559.76 232.13 1597.15 232.13 1638.98 112.49 1603.85 112.49 1579.08 198.09"/><path class="cls-3" d="M1097.76-629.07a49.93,49.93,0,0,0-17.92-11.33,63.29,63.29,0,0,0-22.08-3.78q-17.61,0-30.65,7.79a52.83,52.83,0,0,0-20.21,21.73q-7.17,13.95-7.17,32.41,0,18.93,7.17,32.75a50.86,50.86,0,0,0,20.44,21.35q13.29,7.51,31.74,7.51,14.81,0,26.14-4.55A48.05,48.05,0,0,0,1103.76-538a41.87,41.87,0,0,0,9.54-19.28l-30.69-2a20.34,20.34,0,0,1-5,7.63,20.85,20.85,0,0,1-7.86,4.67,31.38,31.38,0,0,1-10.13,1.56,28.4,28.4,0,0,1-14.41-3.5,23.74,23.74,0,0,1-9.39-10,33.26,33.26,0,0,1-3.31-15.35v-.08H1114v-9.11q0-15.27-4.28-26.68A51.76,51.76,0,0,0,1097.76-629.07Zm-65.19,34.2a26.16,26.16,0,0,1,3.3-11.8,24.84,24.84,0,0,1,9.08-9.27,25.56,25.56,0,0,1,13.36-3.47,25,25,0,0,1,12.73,3.16,22.65,22.65,0,0,1,8.61,8.68,25.4,25.4,0,0,1,3.11,12.7Z" transform="translate(647.43 755.11)"/><path class="cls-3" d="M1197.81-644.33a29,29,0,0,0-17.76,5.72q-7.71,5.73-11,16.86h-1.24v-20.87h-32.17V-523h33.18v-67.7a24.93,24.93,0,0,1,3.31-12.93,23.46,23.46,0,0,1,9-8.76,26.64,26.64,0,0,1,13-3.15,58.73,58.73,0,0,1,7.56.54,43.81,43.81,0,0,1,6.46,1.25v-29.45a37.13,37.13,0,0,0-5.06-.85A49.54,49.54,0,0,0,1197.81-644.33Z" transform="translate(647.43 755.11)"/><path class="cls-3" d="M1293-592.46l-21.65-4.36q-8.34-1.78-11.77-4.75a9.22,9.22,0,0,1-3.42-7.24q0-5.38,5.29-8.61a24.5,24.5,0,0,1,13-3.23,23.74,23.74,0,0,1,9.93,1.9,18.38,18.38,0,0,1,6.74,5.07,16,16,0,0,1,3.35,7l30.38-1.87q-2.19-16.51-15.23-26.1t-35.71-9.58q-15.36,0-26.76,4.52t-17.68,12.85a32.11,32.11,0,0,0-6.27,19.86q0,13.41,8.52,22.05t26.06,12.15l20.72,4.13q7.79,1.56,11.53,4.48a9.31,9.31,0,0,1,3.82,7.44q-.09,5.37-5.42,8.76t-14.06,3.39q-8.88,0-14.56-3.78a16.64,16.64,0,0,1-7.17-11L1220-557.64a38.35,38.35,0,0,0,16.48,27.07q14.05,9.93,37.81,9.93,15.59,0,27.54-4.94t18.85-13.83a32.68,32.68,0,0,0,6.89-20.64q0-12.93-8.56-20.88T1293-592.46Z" transform="translate(647.43 755.11)"/><path class="cls-3" d="M1365.21-691.62a17.79,17.79,0,0,0-12.66,5,15.64,15.64,0,0,0-5.26,11.8,15.73,15.73,0,0,0,5.26,11.88,17.79,17.79,0,0,0,12.66,5,17.79,17.79,0,0,0,12.65-5,15.73,15.73,0,0,0,5.26-11.88,15.64,15.64,0,0,0-5.26-11.8A17.79,17.79,0,0,0,1365.21-691.62Z" transform="translate(647.43 755.11)"/><rect class="cls-3" x="1995.97" y="112.49" width="33.18" height="119.65"/><path class="cls-3" d="M1465.22-548.49a25.52,25.52,0,0,1-4.67.43,15.61,15.61,0,0,1-5.88-1,7.7,7.7,0,0,1-3.94-3.54,15,15,0,0,1-1.4-7.13v-58h22.51v-24.93h-22.51v-28.67h-33.18v28.67h-16.36v24.93h16.36v62.31q-.09,11.76,4.9,19.47a29.33,29.33,0,0,0,14,11.38q9,3.66,21,3.19a58.18,58.18,0,0,0,11-1.28q4.52-1.05,7-1.83l-5.22-24.7Z" transform="translate(647.43 755.11)"/><path class="cls-3" d="M1569.83-642.62l-25,87.86h-1.25l-24.77-87.86h-34.9l42.92,123.07-1.94,5.07q-2.19,5.6-5.65,7.94a13.4,13.4,0,0,1-8.18,2.18,40.59,40.59,0,0,1-10.55-1.95L1493-481.53a45,45,0,0,0,9.07,2.45,67.59,67.59,0,0,0,11.8,1q12.31,0,21-3.93a38.27,38.27,0,0,0,14.45-11.14,56.83,56.83,0,0,0,9.07-16.86L1605-642.62Z" transform="translate(647.43 755.11)"/></g></svg>